# xmcd CD database file
#
# Track frame offsets:
#	150
#	30688
#	67597
#	88597
#	109896
#	138254
#	161800
#
# Disc length: 2472 seconds
#
# Revision: 0
# Processed by: cddbd v1.5.2PL0 Copyright (c) Steve Scherf et al.
# Submitted via: CDex 1.77
#
DISCID=5309a607
DTITLE=Ben Allison - Layers of the City
DYEAR=2017
DGENRE=Jazz
TTITLE0=Magic Number
TTITLE1=Enter the Dragon
TTITLE2=Ghost Ship
TTITLE3=Layers of the City
TTITLE4=The Detective's Wife
TTITLE5=Blowback
TTITLE6=Get Me Offa this Thing
EXTD=YEAR: 2017
EXTT0=
EXTT1=
EXTT2=
EXTT3=
EXTT4=
EXTT5=
EXTT6=
PLAYORDER=
